# xmcd
#
# Track frame offsets:
#	150
#	15422
#	32587
#	44330
#	53352
#	61707
#	83040
#	99175
#	109915
#	119990
#	139435
#	153962
#	182925
#
# Disc length: 2774
#
# Revision: 1
# Processed by: cddbd v1.5.1PL0 Copyright (c) Steve Scherf et al.
# Submitted via: Audion 3.0.2 (http://www.panic.com/audion/)
# Normalized: r0:DSETVAR1,TDELIM( - )
#
DISCID=a30ad40d
DTITLE=Various Artist - Splash Dive
DYEAR=1900
DGENRE=
TTITLE0=Coax - Orchestra
TTITLE1=Lucy Van Pelt - Change
TTITLE2=Wizzy Wig - We Should be in Bed
TTITLE3=Peatmos - Blue Painting
TTITLE4=Cymbals - Happy Time
TTITLE5=Luminous Orange - I Can't Move
TTITLE6=Arc - Expo '70
TTITLE7=Locomotive Pop - Now Tomorrow and Yesterday
TTITLE8=Guitar Bader - Turtle Man
TTITLE9=Kactus - Snow Flakes
TTITLE10=Ura Bike - Vertex
TTITLE11=Chrome Green - Snowy White
TTITLE12=Oneironaut - City
EXTD=
EXTT0=
EXTT1=
EXTT2=
EXTT3=
EXTT4=
EXTT5=
EXTT6=
EXTT7=
EXTT8=
EXTT9=
EXTT10=
EXTT11=
EXTT12=
PLAYORDER=
